<?xml version="1.0" standalone="no"?><!DOCTYPE svg PUBLIC "-//W3C//DTD SVG 1.1//EN" "http://www.w3.org/Graphics/SVG/1.1/DTD/svg11.dtd"><svg t="1535871011305" class="icon" style="" viewBox="0 0 1024 1024" version="1.1" xmlns="http://www.w3.org/2000/svg" p-id="5854" xmlns:xlink="http://www.w3.org/1999/xlink" width="200" height="200"><defs><style type="text/css"></style></defs><path d="M536.941714 1007.981714L899.657143 642.56s32.768-28.013714 32.768-68.315429V349.403429l-44.178286 25.380571V495.908571s2.413714 41.764571-49.225143 89.746286c-47.250286 46.738286-360.96 362.715429-360.96 362.715429l58.88 59.611428z m102.4-672.329143S711.533714 20.626286 855.04 16.164571c141.897143-4.461714 172.251429 104.521143 168.667429 172.909715-4.315429 81.554286-84.260571 142.701714-135.460572 152.210285 0-41.033143 0.219429-57.709714 0.219429-57.709714s83.675429-22.528 83.894857-96.402286c0.219429-57.124571-31.232-131.291429-117.321143-121.856-101.595429 11.264-174.08 298.861714-174.08 298.861715l-15.067429 15.286857-26.550857-43.812572z m149.796572-163.254857h39.862857v312.173715c0.950857 26.624-30.281143 59.026286-30.281143 59.026285l-461.750857 460.580572L0 661.577143s410.697143-411.136 456.118857-456.850286c32.182857-32.329143 53.028571-32.329143 53.028572-32.329143h240.859428l-55.076571 140.214857 5.851428 27.136c2.340571 10.678857 1.536 28.891429 1.536 28.891429a53.174857 53.174857 0 0 1-51.565714 40.740571 55.369143 55.369143 0 0 1-54.272-54.564571c0-15.067429 16.676571-46.08 42.057143-51.273143l15.579428-51.346286c-68.096 14.043429-104.301714 57.856-104.301714 103.862858 0 56.539429 45.568 102.4 101.814857 102.4s101.814857-45.787429 101.814857-102.4c-1.243429-20.041143-3.145143-23.917714-9.874285-44.617143-5.485714-18.285714 27.355429-97.28 27.355428-97.28l18.212572-41.764572z" p-id="5855" fill="#bfbfbf"></path></svg>