<?xml version="1.0" standalone="no"?><!DOCTYPE svg PUBLIC "-//W3C//DTD SVG 1.1//EN" "http://www.w3.org/Graphics/SVG/1.1/DTD/svg11.dtd"><svg t="1535871120097" class="icon" style="" viewBox="0 0 1024 1024" version="1.1" xmlns="http://www.w3.org/2000/svg" p-id="4314" xmlns:xlink="http://www.w3.org/1999/xlink" width="200" height="200"><defs><style type="text/css"></style></defs><path d="M932.074899 95.104101l-48.08231 0L883.99259 80.356036c0-44.209422-34.873378-80.356036-77.48742-80.356036l-1.145401 0c-42.619155 0-77.48742 36.144569-77.48742 80.356036l0 14.748064-428.533483 0L299.338866 80.356036c0-44.209422-34.869288-80.356036-77.48742-80.356036l-1.17915 0c-42.617109 0-77.486397 36.144569-77.486397 80.356036l0 14.748064-47.979019 0c-42.617109 0-77.48742 36.178318-77.48742 80.328424l0 768.211439c0 44.208399 34.869288 80.356036 77.48742 80.356036l836.866997 0c42.617109 0 77.486397-36.146615 77.486397-80.356036L1009.560274 175.432525C1009.560274 131.282418 974.692009 95.104101 932.074899 95.104101L932.074899 95.104101zM758.866703 80.356036c0-26.570242 20.826873-48.211167 46.492043-48.211167l1.145401 0c25.631422 0 46.49102 21.640926 46.49102 48.211167L852.995167 223.284731c0 26.570242-20.859598 48.21219-46.49102 48.21219l-1.145401 0c-25.666193 0-46.492043-21.641948-46.492043-48.21219L758.866703 80.356036 758.866703 80.356036zM174.181276 80.356036c0-26.570242 20.826873-48.211167 46.498179-48.211167l1.171991 0c25.600741 0 46.492043 21.640926 46.492043 48.211167L268.343489 223.284731c0 26.570242-20.892324 48.21219-46.492043 48.21219l-1.171991 0c-25.671306 0-46.498179-21.641948-46.498179-48.21219L174.181276 80.356036 174.181276 80.356036zM932.074899 959.751169 95.207903 959.751169c-8.404382 0-15.497688-7.464539-15.497688-16.107206l0-564.82601L947.574633 378.817954l0 564.82601C947.572588 952.285607 940.479281 959.751169 932.074899 959.751169L932.074899 959.751169zM193.613213 493.858173l142.981874 0 0 72.644009L193.613213 566.502182 193.613213 493.858173 193.613213 493.858173zM443.262628 493.858173l141.850791 0 0 72.644009L443.262628 566.502182 443.262628 493.858173 443.262628 493.858173zM691.779936 493.858173 831.35731 493.858173l0 72.644009L691.779936 566.502182 691.779936 493.858173 691.779936 493.858173zM193.613213 641.483013l142.981874 0 0 71.463836L193.613213 712.94685 193.613213 641.483013 193.613213 641.483013zM443.262628 641.483013l141.850791 0 0 71.463836L443.262628 712.94685 443.262628 641.483013 443.262628 641.483013zM691.779936 641.483013 831.35731 641.483013l0 71.463836L691.779936 712.94685 691.779936 641.483013 691.779936 641.483013zM193.613213 785.58779l142.981874 0 0 74.977764L193.613213 860.565554 193.613213 785.58779 193.613213 785.58779zM443.262628 785.58779l141.850791 0 0 74.977764L443.262628 860.565554 443.262628 785.58779 443.262628 785.58779zM691.779936 785.58779 831.35731 785.58779l0 74.977764L691.779936 860.565554 691.779936 785.58779 691.779936 785.58779z" p-id="4315" fill="#bfbfbf"></path></svg>